<?xml version="1.0" encoding="UTF-8"?>
<svg id="Camada_1" data-name="Camada 1" xmlns="http://www.w3.org/2000/svg" viewBox="0 0 716.67 716.67">
  <defs>
    <style>
      .cls-1 {
        fill: #3e222e;
        stroke-width: 0px;
      }
    </style>
  </defs>
  <path class="cls-1" d="m660.57,353.56l-21.4-12.93,21.4,12.93ZM363.11,56.09l-12.93-21.4h0l12.93,21.4Zm-158.92,569.34c-11.95-6.91-27.24-2.83-34.16,9.12-6.91,11.95-2.83,27.25,9.12,34.16l25.04-43.28Zm-156.23-87.92c6.91,11.95,22.21,16.04,34.16,9.12,11.95-6.91,16.04-22.21,9.12-34.16l-43.28,25.03Zm618.71-179.18c0,170.29-138.05,308.33-308.33,308.33v50c197.9,0,358.33-160.43,358.33-358.33h-50Zm-616.67,0c0-170.29,138.05-308.33,308.33-308.33V0C160.43,0,0,160.43,0,358.33h50Zm425,75c-105.85,0-191.67-85.81-191.67-191.67h-50c0,133.47,108.2,241.67,241.67,241.67v-50Zm164.18-92.7c-33.6,55.61-94.57,92.7-164.18,92.7v50c87.83,0,164.69-46.87,206.97-116.84l-42.8-25.86Zm-355.84-98.97c0-69.61,37.09-130.57,92.7-164.18l-25.86-42.79c-69.97,42.28-116.84,119.14-116.84,206.97h50Zm75-191.67c-2.95,0-6.41-1.33-8.92-3.94-2.13-2.21-2.62-4.31-2.74-5.15-.14-1.04-.07-4.05,3.5-6.21l25.86,42.79c16.77-10.13,22.17-28.69,20.19-43.28-2.05-15.17-14.01-34.21-37.89-34.21v50Zm323.64,316.49c-2.16,3.57-5.17,3.64-6.21,3.5-.85-.12-2.94-.61-5.16-2.74-2.61-2.51-3.94-5.97-3.94-8.92h50c0-23.89-19.04-35.85-34.21-37.89-14.59-1.97-33.15,3.42-43.28,20.19l42.8,25.86Zm-323.64,300.18c-56.2,0-108.82-15.01-154.15-41.23l-25.04,43.28c52.73,30.5,113.96,47.95,179.18,47.95v-50Zm-267.1-154.18c-26.22-45.33-41.23-97.95-41.23-154.15H0c0,65.23,17.45,126.45,47.95,179.18l43.28-25.03Z"/>
</svg>