<?xml version="1.0" standalone="no"?>
<!DOCTYPE svg PUBLIC "-//W3C//DTD SVG 20010904//EN"
 "http://www.w3.org/TR/2001/REC-SVG-20010904/DTD/svg10.dtd">
<svg version="1.0" xmlns="http://www.w3.org/2000/svg"
 width="700.000000pt" height="700.000000pt" viewBox="0 0 700.000000 700.000000"
 preserveAspectRatio="xMidYMid meet">
<metadata>
Created by potrace 1.14, written by Peter Selinger 2001-2017
</metadata>
<g transform="translate(0.000000,700.000000) scale(0.100000,-0.100000)"
fill="#000000" stroke="none">
<path d="M3280 6994 c-19 -2 -87 -9 -150 -15 -627 -59 -1261 -315 -1790 -725
-148 -114 -480 -446 -594 -594 -409 -529 -651 -1123 -728 -1790 -16 -144 -16
-598 0 -735 42 -347 126 -678 246 -970 54 -132 181 -383 221 -436 100 -138
310 -130 400 15 27 44 30 58 30 130 0 80 -1 82 -58 186 -169 305 -280 638
-340 1020 -29 185 -31 633 -4 815 91 606 318 1116 693 1554 443 518 1039 870
1694 1001 80 16 174 32 210 36 l65 6 -40 -32 c-84 -69 -304 -299 -372 -390
-275 -367 -427 -758 -474 -1215 -14 -145 -7 -416 16 -565 98 -636 445 -1199
973 -1577 293 -209 646 -351 1022 -410 161 -25 520 -25 679 0 431 68 816 237
1146 504 95 77 263 241 334 328 l33 40 -6 -65 c-11 -104 -62 -346 -101 -475
-107 -353 -301 -725 -531 -1014 -99 -123 -352 -376 -475 -475 -357 -284 -808
-498 -1244 -590 -248 -52 -341 -61 -640 -60 -235 0 -302 4 -415 21 -381 60
-716 172 -1020 340 -104 57 -106 58 -186 58 -72 0 -86 -3 -130 -30 -106 -66
-144 -199 -89 -311 32 -64 64 -91 209 -168 310 -165 698 -297 1046 -355 190
-32 287 -41 495 -48 849 -27 1688 265 2345 818 134 113 345 325 452 455 499
605 790 1392 792 2144 1 169 0 177 -25 230 -41 85 -90 135 -177 177 -74 37
-79 38 -187 38 -103 0 -114 -2 -176 -31 -90 -43 -140 -91 -214 -204 -285 -439
-710 -726 -1231 -830 -131 -27 -403 -37 -544 -21 -424 49 -797 223 -1098 515
-310 300 -499 671 -558 1101 -22 159 -14 444 15 589 106 518 387 937 817 1222
129 85 174 132 218 223 29 62 31 73 31 177 0 107 -1 112 -38 186 -43 87 -92
137 -177 176 -50 24 -67 27 -195 28 -77 1 -156 0 -175 -2z"/>
</g>
</svg>
